<svg xmlns="http://www.w3.org/2000/svg" width="1200" height="630" viewBox="0 0 1200 630">
  <defs>
    <linearGradient id="bg" x1="0%" y1="0%" x2="100%" y2="100%">
      <stop offset="0%" style="stop-color:#1a1a2e;stop-opacity:1" />
      <stop offset="100%" style="stop-color:#16213e;stop-opacity:1" />
    </linearGradient>
    <linearGradient id="accent" x1="0%" y1="0%" x2="100%" y2="0%">
      <stop offset="0%" style="stop-color:#6E40C9;stop-opacity:1" />
      <stop offset="100%" style="stop-color:#9B59B6;stop-opacity:1" />
    </linearGradient>
  </defs>

  <!-- Background -->
  <rect width="1200" height="630" fill="url(#bg)"/>

  <!-- Purple accent bar left -->
  <rect x="0" y="0" width="8" height="630" fill="url(#accent)"/>

  <!-- Decorative circles -->
  <circle cx="1050" cy="120" r="200" fill="#6E40C9" opacity="0.08"/>
  <circle cx="1100" cy="500" r="150" fill="#6E40C9" opacity="0.06"/>
  <circle cx="80" cy="500" r="100" fill="#6E40C9" opacity="0.05"/>

  <!-- Top label -->
  <rect x="60" y="60" width="220" height="36" rx="18" fill="#6E40C9" opacity="0.3"/>
  <text x="170" y="84" font-family="system-ui, -apple-system, sans-serif" font-size="14" font-weight="700" fill="#B99EE8" text-anchor="middle" letter-spacing="2">PDF GUIDE · $9</text>

  <!-- Main headline -->
  <text x="60" y="190" font-family="system-ui, -apple-system, sans-serif" font-size="68" font-weight="800" fill="white" letter-spacing="-1">50 AI Workflows</text>
  <text x="60" y="265" font-family="system-ui, -apple-system, sans-serif" font-size="68" font-weight="800" fill="white" letter-spacing="-1">That <tspan fill="#9B6EF5">Actually Work</tspan></text>

  <!-- Subheadline -->
  <text x="60" y="330" font-family="system-ui, -apple-system, sans-serif" font-size="26" fill="#a0aec0" font-weight="400">Before + after examples for every workflow.</text>
  <text x="60" y="365" font-family="system-ui, -apple-system, sans-serif" font-size="26" fill="#a0aec0" font-weight="400">Works with ChatGPT, Claude, and Gemini.</text>

  <!-- Divider -->
  <line x1="60" y1="415" x2="760" y2="415" stroke="#2d3748" stroke-width="1"/>

  <!-- 4 category pills -->
  <!-- Writing -->
  <rect x="60" y="440" width="160" height="40" rx="20" fill="#2d3748"/>
  <text x="140" y="466" font-family="system-ui, -apple-system, sans-serif" font-size="14" fill="#e2e8f0" text-anchor="middle" font-weight="600">✍ Writing</text>

  <!-- Email -->
  <rect x="234" y="440" width="160" height="40" rx="20" fill="#2d3748"/>
  <text x="314" y="466" font-family="system-ui, -apple-system, sans-serif" font-size="14" fill="#e2e8f0" text-anchor="middle" font-weight="600">📧 Email</text>

  <!-- Research -->
  <rect x="408" y="440" width="160" height="40" rx="20" fill="#2d3748"/>
  <text x="488" y="466" font-family="system-ui, -apple-system, sans-serif" font-size="14" fill="#e2e8f0" text-anchor="middle" font-weight="600">🔍 Research</text>

  <!-- Marketing -->
  <rect x="582" y="440" width="160" height="40" rx="20" fill="#2d3748"/>
  <text x="662" y="466" font-family="system-ui, -apple-system, sans-serif" font-size="14" fill="#e2e8f0" text-anchor="middle" font-weight="600">📣 Marketing</text>

  <!-- Second row pills -->
  <!-- Operations -->
  <rect x="60" y="495" width="160" height="40" rx="20" fill="#2d3748"/>
  <text x="140" y="521" font-family="system-ui, -apple-system, sans-serif" font-size="14" fill="#e2e8f0" text-anchor="middle" font-weight="600">⚙️ Operations</text>

  <!-- Social Media -->
  <rect x="234" y="495" width="160" height="40" rx="20" fill="#2d3748"/>
  <text x="314" y="521" font-family="system-ui, -apple-system, sans-serif" font-size="14" fill="#e2e8f0" text-anchor="middle" font-weight="600">📱 Social</text>

  <!-- Productivity -->
  <rect x="408" y="495" width="160" height="40" rx="20" fill="#2d3748"/>
  <text x="488" y="521" font-family="system-ui, -apple-system, sans-serif" font-size="14" fill="#e2e8f0" text-anchor="middle" font-weight="600">⚡ Productivity</text>

  <!-- Customer Service -->
  <rect x="582" y="495" width="190" height="40" rx="20" fill="#2d3748"/>
  <text x="677" y="521" font-family="system-ui, -apple-system, sans-serif" font-size="14" fill="#e2e8f0" text-anchor="middle" font-weight="600">💬 Customer</text>

  <!-- Bottom URL -->
  <text x="60" y="590" font-family="system-ui, -apple-system, monospace" font-size="18" fill="#718096">admin-sosys.github.io/ai-workflow-blueprint</text>

  <!-- Right side visual: "mock PDF page" -->
  <rect x="820" y="80" width="330" height="430" rx="12" fill="#1e2a3a" stroke="#2d4a6e" stroke-width="1"/>
  <rect x="820" y="80" width="330" height="50" rx="12" fill="#2d3748"/>
  <rect x="820" y="105" width="330" height="25" fill="#2d3748"/>
  <text x="985" y="113" font-family="system-ui, sans-serif" font-size="13" fill="#9B6EF5" text-anchor="middle" font-weight="700" letter-spacing="1">AI WORKFLOW BLUEPRINT</text>

  <!-- PDF content lines -->
  <rect x="844" y="148" width="180" height="10" rx="5" fill="#2d4a6e" opacity="0.8"/>
  <rect x="844" y="166" width="260" height="8" rx="4" fill="#2d4a6e" opacity="0.5"/>
  <rect x="844" y="182" width="240" height="8" rx="4" fill="#2d4a6e" opacity="0.5"/>

  <!-- Before/after block -->
  <rect x="844" y="206" width="282" height="66" rx="8" fill="#1a2332"/>
  <rect x="844" y="206" width="282" height="22" rx="8" fill="#c53030" opacity="0.3"/>
  <text x="857" y="221" font-family="system-ui, sans-serif" font-size="11" fill="#fc8181" font-weight="700">❌  BEFORE</text>
  <rect x="856" y="230" width="250" height="7" rx="3" fill="#2d4a6e" opacity="0.6"/>
  <rect x="856" y="243" width="200" height="7" rx="3" fill="#2d4a6e" opacity="0.5"/>
  <rect x="856" y="256" width="220" height="7" rx="3" fill="#2d4a6e" opacity="0.4"/>

  <rect x="844" y="280" width="282" height="90" rx="8" fill="#1a3232"/>
  <rect x="844" y="280" width="282" height="22" rx="8" fill="#276749" opacity="0.5"/>
  <text x="857" y="295" font-family="system-ui, sans-serif" font-size="11" fill="#68d391" font-weight="700">✅  AFTER</text>
  <rect x="856" y="308" width="250" height="7" rx="3" fill="#2d6a4a" opacity="0.8"/>
  <rect x="856" y="321" width="240" height="7" rx="3" fill="#2d6a4a" opacity="0.7"/>
  <rect x="856" y="334" width="230" height="7" rx="3" fill="#2d6a4a" opacity="0.6"/>
  <rect x="856" y="347" width="200" height="7" rx="3" fill="#2d6a4a" opacity="0.5"/>

  <!-- More lines -->
  <rect x="844" y="384" width="180" height="10" rx="5" fill="#2d4a6e" opacity="0.8"/>
  <rect x="844" y="402" width="260" height="8" rx="4" fill="#2d4a6e" opacity="0.5"/>
  <rect x="844" y="418" width="240" height="8" rx="4" fill="#2d4a6e" opacity="0.5"/>
  <rect x="844" y="434" width="200" height="8" rx="4" fill="#2d4a6e" opacity="0.4"/>
  <rect x="844" y="450" width="220" height="8" rx="4" fill="#2d4a6e" opacity="0.4"/>

  <!-- Page number -->
  <text x="985" y="492" font-family="system-ui, sans-serif" font-size="11" fill="#4a5568" text-anchor="middle">64 pages · PDF</text>
</svg>
